<mxfile host="app.diagrams.net" modified="2022-03-30T16:33:27.309Z" agent="5.0 (Windows NT 10.0; Win64; x64) AppleWebKit/537.36 (KHTML, like Gecko) Chrome/99.0.4844.84 Safari/537.36" etag="mRZuBbyOV0oKTVJ-irXM" version="17.2.4" type="github">
  <diagram id="R2lEEEUBdFMjLlhIrx00" name="Page-1">
    <mxGraphModel dx="2090" dy="1731" grid="1" gridSize="10" guides="1" tooltips="1" connect="1" arrows="1" fold="1" page="1" pageScale="1" pageWidth="850" pageHeight="1100" background="#99FFCC" math="0" shadow="0" extFonts="Permanent Marker^https://fonts.googleapis.com/css?family=Permanent+Marker">
      <root>
        <mxCell id="0" />
        <mxCell id="1" parent="0" />
        <mxCell id="89x9Amh8rofe3yRWOV46-9" style="edgeStyle=orthogonalEdgeStyle;rounded=0;orthogonalLoop=1;jettySize=auto;html=1;exitX=0.5;exitY=0;exitDx=0;exitDy=0;entryX=0.5;entryY=1;entryDx=0;entryDy=0;endArrow=none;endFill=0;" edge="1" parent="1" source="iwt4n_2sWbRLV4kIYSHd-1" target="89x9Amh8rofe3yRWOV46-1">
          <mxGeometry relative="1" as="geometry" />
        </mxCell>
        <mxCell id="89x9Amh8rofe3yRWOV46-11" style="edgeStyle=orthogonalEdgeStyle;rounded=0;orthogonalLoop=1;jettySize=auto;html=1;exitX=0.5;exitY=0;exitDx=0;exitDy=0;entryX=0.5;entryY=1;entryDx=0;entryDy=0;endArrow=none;endFill=0;" edge="1" parent="1" source="iwt4n_2sWbRLV4kIYSHd-1" target="89x9Amh8rofe3yRWOV46-5">
          <mxGeometry relative="1" as="geometry" />
        </mxCell>
        <mxCell id="89x9Amh8rofe3yRWOV46-14" style="edgeStyle=orthogonalEdgeStyle;rounded=0;orthogonalLoop=1;jettySize=auto;html=1;exitX=0.5;exitY=1;exitDx=0;exitDy=0;entryX=0.5;entryY=0;entryDx=0;entryDy=0;endArrow=none;endFill=0;" edge="1" parent="1" source="iwt4n_2sWbRLV4kIYSHd-1" target="89x9Amh8rofe3yRWOV46-3">
          <mxGeometry relative="1" as="geometry" />
        </mxCell>
        <mxCell id="89x9Amh8rofe3yRWOV46-92" style="edgeStyle=orthogonalEdgeStyle;rounded=0;orthogonalLoop=1;jettySize=auto;html=1;exitX=0;exitY=0.25;exitDx=0;exitDy=0;entryX=1;entryY=0.5;entryDx=0;entryDy=0;shadow=0;endArrow=none;endFill=0;" edge="1" parent="1" source="iwt4n_2sWbRLV4kIYSHd-1" target="89x9Amh8rofe3yRWOV46-51">
          <mxGeometry relative="1" as="geometry" />
        </mxCell>
        <mxCell id="89x9Amh8rofe3yRWOV46-93" style="edgeStyle=orthogonalEdgeStyle;rounded=0;orthogonalLoop=1;jettySize=auto;html=1;exitX=0;exitY=0.75;exitDx=0;exitDy=0;entryX=1;entryY=0.5;entryDx=0;entryDy=0;shadow=0;endArrow=none;endFill=0;" edge="1" parent="1" source="iwt4n_2sWbRLV4kIYSHd-1" target="89x9Amh8rofe3yRWOV46-52">
          <mxGeometry relative="1" as="geometry" />
        </mxCell>
        <mxCell id="89x9Amh8rofe3yRWOV46-94" style="edgeStyle=orthogonalEdgeStyle;rounded=0;orthogonalLoop=1;jettySize=auto;html=1;exitX=0;exitY=0.25;exitDx=0;exitDy=0;entryX=1;entryY=0.5;entryDx=0;entryDy=0;shadow=0;endArrow=none;endFill=0;" edge="1" parent="1" source="iwt4n_2sWbRLV4kIYSHd-1" target="89x9Amh8rofe3yRWOV46-54">
          <mxGeometry relative="1" as="geometry" />
        </mxCell>
        <mxCell id="89x9Amh8rofe3yRWOV46-95" style="edgeStyle=orthogonalEdgeStyle;rounded=0;orthogonalLoop=1;jettySize=auto;html=1;exitX=0;exitY=0.5;exitDx=0;exitDy=0;entryX=1;entryY=0.5;entryDx=0;entryDy=0;shadow=0;endArrow=none;endFill=0;" edge="1" parent="1" source="iwt4n_2sWbRLV4kIYSHd-1" target="89x9Amh8rofe3yRWOV46-55">
          <mxGeometry relative="1" as="geometry" />
        </mxCell>
        <mxCell id="89x9Amh8rofe3yRWOV46-96" style="edgeStyle=orthogonalEdgeStyle;rounded=0;orthogonalLoop=1;jettySize=auto;html=1;exitX=0;exitY=0.5;exitDx=0;exitDy=0;entryX=1;entryY=0.5;entryDx=0;entryDy=0;shadow=0;endArrow=none;endFill=0;" edge="1" parent="1" source="iwt4n_2sWbRLV4kIYSHd-1" target="89x9Amh8rofe3yRWOV46-57">
          <mxGeometry relative="1" as="geometry" />
        </mxCell>
        <mxCell id="iwt4n_2sWbRLV4kIYSHd-1" value="Tamu" style="whiteSpace=wrap;html=1;align=center;" parent="1" vertex="1">
          <mxGeometry x="90" y="260" width="100" height="40" as="geometry" />
        </mxCell>
        <mxCell id="89x9Amh8rofe3yRWOV46-16" style="edgeStyle=orthogonalEdgeStyle;rounded=0;orthogonalLoop=1;jettySize=auto;html=1;exitX=0;exitY=0.5;exitDx=0;exitDy=0;entryX=1;entryY=0.5;entryDx=0;entryDy=0;endArrow=none;endFill=0;" edge="1" parent="1" source="iwt4n_2sWbRLV4kIYSHd-2" target="89x9Amh8rofe3yRWOV46-2">
          <mxGeometry relative="1" as="geometry" />
        </mxCell>
        <mxCell id="89x9Amh8rofe3yRWOV46-46" style="edgeStyle=orthogonalEdgeStyle;rounded=0;orthogonalLoop=1;jettySize=auto;html=1;exitX=0.25;exitY=1;exitDx=0;exitDy=0;entryX=0.5;entryY=0;entryDx=0;entryDy=0;shadow=0;endArrow=none;endFill=0;" edge="1" parent="1" source="iwt4n_2sWbRLV4kIYSHd-2" target="89x9Amh8rofe3yRWOV46-38">
          <mxGeometry relative="1" as="geometry" />
        </mxCell>
        <mxCell id="89x9Amh8rofe3yRWOV46-47" style="edgeStyle=orthogonalEdgeStyle;rounded=0;orthogonalLoop=1;jettySize=auto;html=1;exitX=0.5;exitY=1;exitDx=0;exitDy=0;entryX=0.5;entryY=0;entryDx=0;entryDy=0;shadow=0;endArrow=none;endFill=0;" edge="1" parent="1" source="iwt4n_2sWbRLV4kIYSHd-2" target="89x9Amh8rofe3yRWOV46-39">
          <mxGeometry relative="1" as="geometry" />
        </mxCell>
        <mxCell id="89x9Amh8rofe3yRWOV46-48" style="edgeStyle=orthogonalEdgeStyle;rounded=0;orthogonalLoop=1;jettySize=auto;html=1;exitX=0.75;exitY=1;exitDx=0;exitDy=0;entryX=0.5;entryY=0;entryDx=0;entryDy=0;shadow=0;endArrow=none;endFill=0;" edge="1" parent="1" source="iwt4n_2sWbRLV4kIYSHd-2" target="89x9Amh8rofe3yRWOV46-40">
          <mxGeometry relative="1" as="geometry" />
        </mxCell>
        <mxCell id="89x9Amh8rofe3yRWOV46-49" style="edgeStyle=orthogonalEdgeStyle;rounded=0;orthogonalLoop=1;jettySize=auto;html=1;entryX=0;entryY=0.5;entryDx=0;entryDy=0;shadow=0;exitX=1;exitY=0.75;exitDx=0;exitDy=0;endArrow=none;endFill=0;" edge="1" parent="1" source="iwt4n_2sWbRLV4kIYSHd-2" target="89x9Amh8rofe3yRWOV46-43">
          <mxGeometry relative="1" as="geometry">
            <mxPoint x="830" y="460" as="sourcePoint" />
          </mxGeometry>
        </mxCell>
        <mxCell id="89x9Amh8rofe3yRWOV46-50" style="edgeStyle=orthogonalEdgeStyle;rounded=0;orthogonalLoop=1;jettySize=auto;html=1;exitX=1;exitY=0.5;exitDx=0;exitDy=0;entryX=0;entryY=0.5;entryDx=0;entryDy=0;shadow=0;endArrow=none;endFill=0;" edge="1" parent="1" source="iwt4n_2sWbRLV4kIYSHd-2" target="89x9Amh8rofe3yRWOV46-45">
          <mxGeometry relative="1" as="geometry" />
        </mxCell>
        <mxCell id="iwt4n_2sWbRLV4kIYSHd-2" value="Resepsionis" style="whiteSpace=wrap;html=1;align=center;" parent="1" vertex="1">
          <mxGeometry x="710" y="410" width="100" height="40" as="geometry" />
        </mxCell>
        <mxCell id="89x9Amh8rofe3yRWOV46-32" style="edgeStyle=orthogonalEdgeStyle;rounded=0;orthogonalLoop=1;jettySize=auto;html=1;exitX=0;exitY=0.5;exitDx=0;exitDy=0;entryX=1;entryY=0.5;entryDx=0;entryDy=0;shadow=0;endArrow=none;endFill=0;" edge="1" parent="1" source="iwt4n_2sWbRLV4kIYSHd-3" target="89x9Amh8rofe3yRWOV46-23">
          <mxGeometry relative="1" as="geometry" />
        </mxCell>
        <mxCell id="89x9Amh8rofe3yRWOV46-33" style="edgeStyle=orthogonalEdgeStyle;rounded=0;orthogonalLoop=1;jettySize=auto;html=1;exitX=0.25;exitY=1;exitDx=0;exitDy=0;entryX=1;entryY=0.5;entryDx=0;entryDy=0;shadow=0;endArrow=none;endFill=0;" edge="1" parent="1" source="iwt4n_2sWbRLV4kIYSHd-3" target="89x9Amh8rofe3yRWOV46-22">
          <mxGeometry relative="1" as="geometry" />
        </mxCell>
        <mxCell id="89x9Amh8rofe3yRWOV46-34" style="edgeStyle=orthogonalEdgeStyle;rounded=0;orthogonalLoop=1;jettySize=auto;html=1;exitX=1;exitY=0.25;exitDx=0;exitDy=0;entryX=0.5;entryY=1;entryDx=0;entryDy=0;shadow=0;endArrow=none;endFill=0;" edge="1" parent="1" source="iwt4n_2sWbRLV4kIYSHd-3" target="89x9Amh8rofe3yRWOV46-24">
          <mxGeometry relative="1" as="geometry" />
        </mxCell>
        <mxCell id="89x9Amh8rofe3yRWOV46-35" style="edgeStyle=orthogonalEdgeStyle;rounded=0;orthogonalLoop=1;jettySize=auto;html=1;exitX=1;exitY=0.75;exitDx=0;exitDy=0;entryX=0.5;entryY=0;entryDx=0;entryDy=0;shadow=0;endArrow=none;endFill=0;" edge="1" parent="1" source="iwt4n_2sWbRLV4kIYSHd-3" target="89x9Amh8rofe3yRWOV46-25">
          <mxGeometry relative="1" as="geometry" />
        </mxCell>
        <mxCell id="89x9Amh8rofe3yRWOV46-37" style="edgeStyle=orthogonalEdgeStyle;rounded=0;orthogonalLoop=1;jettySize=auto;html=1;exitX=1;exitY=0.5;exitDx=0;exitDy=0;entryX=0;entryY=0.5;entryDx=0;entryDy=0;shadow=0;endArrow=none;endFill=0;" edge="1" parent="1" source="iwt4n_2sWbRLV4kIYSHd-3" target="89x9Amh8rofe3yRWOV46-36">
          <mxGeometry relative="1" as="geometry" />
        </mxCell>
        <mxCell id="iwt4n_2sWbRLV4kIYSHd-3" value="Administrator" style="whiteSpace=wrap;html=1;align=center;" parent="1" vertex="1">
          <mxGeometry x="650" y="270" width="120" height="50" as="geometry" />
        </mxCell>
        <mxCell id="89x9Amh8rofe3yRWOV46-97" style="edgeStyle=orthogonalEdgeStyle;rounded=0;orthogonalLoop=1;jettySize=auto;html=1;exitX=0.25;exitY=0;exitDx=0;exitDy=0;entryX=0.5;entryY=1;entryDx=0;entryDy=0;shadow=0;endArrow=none;endFill=0;" edge="1" parent="1" source="iwt4n_2sWbRLV4kIYSHd-4" target="89x9Amh8rofe3yRWOV46-87">
          <mxGeometry relative="1" as="geometry" />
        </mxCell>
        <mxCell id="89x9Amh8rofe3yRWOV46-98" value="" style="edgeStyle=orthogonalEdgeStyle;rounded=0;orthogonalLoop=1;jettySize=auto;html=1;shadow=0;endArrow=none;endFill=0;" edge="1" parent="1" source="iwt4n_2sWbRLV4kIYSHd-4" target="89x9Amh8rofe3yRWOV46-88">
          <mxGeometry relative="1" as="geometry" />
        </mxCell>
        <mxCell id="89x9Amh8rofe3yRWOV46-99" style="edgeStyle=orthogonalEdgeStyle;rounded=0;orthogonalLoop=1;jettySize=auto;html=1;exitX=0.75;exitY=0;exitDx=0;exitDy=0;shadow=0;endArrow=none;endFill=0;" edge="1" parent="1" source="iwt4n_2sWbRLV4kIYSHd-4" target="89x9Amh8rofe3yRWOV46-89">
          <mxGeometry relative="1" as="geometry" />
        </mxCell>
        <mxCell id="iwt4n_2sWbRLV4kIYSHd-4" value="Kamar" style="whiteSpace=wrap;html=1;align=center;" parent="1" vertex="1">
          <mxGeometry x="240" y="10" width="100" height="40" as="geometry" />
        </mxCell>
        <mxCell id="89x9Amh8rofe3yRWOV46-115" style="edgeStyle=orthogonalEdgeStyle;rounded=0;orthogonalLoop=1;jettySize=auto;html=1;exitX=1;exitY=0.75;exitDx=0;exitDy=0;entryX=0.5;entryY=0;entryDx=0;entryDy=0;shadow=0;endArrow=none;endFill=0;" edge="1" parent="1" source="iwt4n_2sWbRLV4kIYSHd-5" target="89x9Amh8rofe3yRWOV46-111">
          <mxGeometry relative="1" as="geometry" />
        </mxCell>
        <mxCell id="89x9Amh8rofe3yRWOV46-116" style="edgeStyle=orthogonalEdgeStyle;rounded=0;orthogonalLoop=1;jettySize=auto;html=1;exitX=1;exitY=0.25;exitDx=0;exitDy=0;entryX=0.5;entryY=1;entryDx=0;entryDy=0;shadow=0;endArrow=none;endFill=0;" edge="1" parent="1" source="iwt4n_2sWbRLV4kIYSHd-5" target="89x9Amh8rofe3yRWOV46-114">
          <mxGeometry relative="1" as="geometry" />
        </mxCell>
        <mxCell id="89x9Amh8rofe3yRWOV46-117" style="edgeStyle=orthogonalEdgeStyle;rounded=0;orthogonalLoop=1;jettySize=auto;html=1;exitX=0.75;exitY=0;exitDx=0;exitDy=0;entryX=0.5;entryY=1;entryDx=0;entryDy=0;shadow=0;endArrow=none;endFill=0;" edge="1" parent="1" source="iwt4n_2sWbRLV4kIYSHd-5" target="89x9Amh8rofe3yRWOV46-113">
          <mxGeometry relative="1" as="geometry" />
        </mxCell>
        <mxCell id="89x9Amh8rofe3yRWOV46-118" style="edgeStyle=orthogonalEdgeStyle;rounded=0;orthogonalLoop=1;jettySize=auto;html=1;exitX=0.25;exitY=0;exitDx=0;exitDy=0;entryX=0.5;entryY=1;entryDx=0;entryDy=0;shadow=0;endArrow=none;endFill=0;" edge="1" parent="1" source="iwt4n_2sWbRLV4kIYSHd-5" target="89x9Amh8rofe3yRWOV46-112">
          <mxGeometry relative="1" as="geometry" />
        </mxCell>
        <mxCell id="iwt4n_2sWbRLV4kIYSHd-5" value="Fasilitas Kamar" style="whiteSpace=wrap;html=1;align=center;" parent="1" vertex="1">
          <mxGeometry x="760" y="10" width="100" height="40" as="geometry" />
        </mxCell>
        <mxCell id="89x9Amh8rofe3yRWOV46-7" style="edgeStyle=orthogonalEdgeStyle;rounded=0;orthogonalLoop=1;jettySize=auto;html=1;exitX=0.5;exitY=1;exitDx=0;exitDy=0;entryX=0.5;entryY=0;entryDx=0;entryDy=0;endArrow=none;endFill=0;" edge="1" parent="1" source="iwt4n_2sWbRLV4kIYSHd-6" target="89x9Amh8rofe3yRWOV46-4">
          <mxGeometry relative="1" as="geometry" />
        </mxCell>
        <mxCell id="89x9Amh8rofe3yRWOV46-105" style="edgeStyle=orthogonalEdgeStyle;rounded=0;orthogonalLoop=1;jettySize=auto;html=1;exitX=0.25;exitY=0;exitDx=0;exitDy=0;entryX=0.5;entryY=1;entryDx=0;entryDy=0;shadow=0;endArrow=none;endFill=0;" edge="1" parent="1" source="iwt4n_2sWbRLV4kIYSHd-6" target="89x9Amh8rofe3yRWOV46-102">
          <mxGeometry relative="1" as="geometry" />
        </mxCell>
        <mxCell id="89x9Amh8rofe3yRWOV46-106" style="edgeStyle=orthogonalEdgeStyle;rounded=0;orthogonalLoop=1;jettySize=auto;html=1;exitX=0.5;exitY=0;exitDx=0;exitDy=0;entryX=0.5;entryY=1;entryDx=0;entryDy=0;shadow=0;endArrow=none;endFill=0;" edge="1" parent="1" source="iwt4n_2sWbRLV4kIYSHd-6" target="89x9Amh8rofe3yRWOV46-103">
          <mxGeometry relative="1" as="geometry" />
        </mxCell>
        <mxCell id="89x9Amh8rofe3yRWOV46-107" style="edgeStyle=orthogonalEdgeStyle;rounded=0;orthogonalLoop=1;jettySize=auto;html=1;exitX=0.75;exitY=0;exitDx=0;exitDy=0;entryX=0.5;entryY=1;entryDx=0;entryDy=0;shadow=0;endArrow=none;endFill=0;" edge="1" parent="1" source="iwt4n_2sWbRLV4kIYSHd-6" target="89x9Amh8rofe3yRWOV46-104">
          <mxGeometry relative="1" as="geometry" />
        </mxCell>
        <mxCell id="89x9Amh8rofe3yRWOV46-110" style="edgeStyle=orthogonalEdgeStyle;rounded=0;orthogonalLoop=1;jettySize=auto;html=1;exitX=0.75;exitY=0;exitDx=0;exitDy=0;shadow=0;endArrow=none;endFill=0;" edge="1" parent="1" source="iwt4n_2sWbRLV4kIYSHd-6" target="89x9Amh8rofe3yRWOV46-109">
          <mxGeometry relative="1" as="geometry" />
        </mxCell>
        <mxCell id="iwt4n_2sWbRLV4kIYSHd-6" value="Fasilitas Umum Hotel" style="whiteSpace=wrap;html=1;align=center;" parent="1" vertex="1">
          <mxGeometry x="470" y="10" width="100" height="40" as="geometry" />
        </mxCell>
        <mxCell id="89x9Amh8rofe3yRWOV46-72" style="edgeStyle=orthogonalEdgeStyle;rounded=0;orthogonalLoop=1;jettySize=auto;html=1;exitX=0.25;exitY=1;exitDx=0;exitDy=0;shadow=0;endArrow=none;endFill=0;" edge="1" parent="1" source="iwt4n_2sWbRLV4kIYSHd-7" target="89x9Amh8rofe3yRWOV46-63">
          <mxGeometry relative="1" as="geometry" />
        </mxCell>
        <mxCell id="89x9Amh8rofe3yRWOV46-73" style="edgeStyle=orthogonalEdgeStyle;rounded=0;orthogonalLoop=1;jettySize=auto;html=1;exitX=0.25;exitY=1;exitDx=0;exitDy=0;entryX=0.5;entryY=0;entryDx=0;entryDy=0;shadow=0;endArrow=none;endFill=0;" edge="1" parent="1" source="iwt4n_2sWbRLV4kIYSHd-7" target="89x9Amh8rofe3yRWOV46-64">
          <mxGeometry relative="1" as="geometry" />
        </mxCell>
        <mxCell id="89x9Amh8rofe3yRWOV46-74" style="edgeStyle=orthogonalEdgeStyle;rounded=0;orthogonalLoop=1;jettySize=auto;html=1;exitX=0.5;exitY=1;exitDx=0;exitDy=0;entryX=0.5;entryY=0;entryDx=0;entryDy=0;shadow=0;endArrow=none;endFill=0;" edge="1" parent="1" source="iwt4n_2sWbRLV4kIYSHd-7" target="89x9Amh8rofe3yRWOV46-67">
          <mxGeometry relative="1" as="geometry" />
        </mxCell>
        <mxCell id="89x9Amh8rofe3yRWOV46-76" style="edgeStyle=orthogonalEdgeStyle;rounded=0;orthogonalLoop=1;jettySize=auto;html=1;exitX=0.75;exitY=1;exitDx=0;exitDy=0;entryX=0.5;entryY=0;entryDx=0;entryDy=0;shadow=0;endArrow=none;endFill=0;" edge="1" parent="1" source="iwt4n_2sWbRLV4kIYSHd-7" target="89x9Amh8rofe3yRWOV46-65">
          <mxGeometry relative="1" as="geometry" />
        </mxCell>
        <mxCell id="89x9Amh8rofe3yRWOV46-78" style="edgeStyle=orthogonalEdgeStyle;rounded=0;orthogonalLoop=1;jettySize=auto;html=1;exitX=0.5;exitY=1;exitDx=0;exitDy=0;entryX=0.5;entryY=0;entryDx=0;entryDy=0;shadow=0;endArrow=none;endFill=0;" edge="1" parent="1" source="iwt4n_2sWbRLV4kIYSHd-7" target="89x9Amh8rofe3yRWOV46-69">
          <mxGeometry relative="1" as="geometry" />
        </mxCell>
        <mxCell id="89x9Amh8rofe3yRWOV46-81" style="edgeStyle=orthogonalEdgeStyle;rounded=0;orthogonalLoop=1;jettySize=auto;html=1;exitX=0.25;exitY=0;exitDx=0;exitDy=0;shadow=0;endArrow=none;endFill=0;" edge="1" parent="1" source="iwt4n_2sWbRLV4kIYSHd-7" target="89x9Amh8rofe3yRWOV46-71">
          <mxGeometry relative="1" as="geometry" />
        </mxCell>
        <mxCell id="89x9Amh8rofe3yRWOV46-82" style="edgeStyle=orthogonalEdgeStyle;rounded=0;orthogonalLoop=1;jettySize=auto;html=1;exitX=0.75;exitY=0;exitDx=0;exitDy=0;entryX=0.5;entryY=1;entryDx=0;entryDy=0;shadow=0;endArrow=none;endFill=0;" edge="1" parent="1" source="iwt4n_2sWbRLV4kIYSHd-7" target="89x9Amh8rofe3yRWOV46-68">
          <mxGeometry relative="1" as="geometry" />
        </mxCell>
        <mxCell id="89x9Amh8rofe3yRWOV46-84" style="edgeStyle=orthogonalEdgeStyle;rounded=0;orthogonalLoop=1;jettySize=auto;html=1;exitX=0.5;exitY=0;exitDx=0;exitDy=0;entryX=0.5;entryY=1;entryDx=0;entryDy=0;shadow=0;endArrow=none;endFill=0;" edge="1" parent="1" source="iwt4n_2sWbRLV4kIYSHd-7" target="89x9Amh8rofe3yRWOV46-70">
          <mxGeometry relative="1" as="geometry" />
        </mxCell>
        <mxCell id="89x9Amh8rofe3yRWOV46-86" style="edgeStyle=orthogonalEdgeStyle;rounded=0;orthogonalLoop=1;jettySize=auto;html=1;exitX=0.75;exitY=0;exitDx=0;exitDy=0;entryX=0.5;entryY=1;entryDx=0;entryDy=0;shadow=0;endArrow=none;endFill=0;" edge="1" parent="1" source="iwt4n_2sWbRLV4kIYSHd-7" target="89x9Amh8rofe3yRWOV46-66">
          <mxGeometry relative="1" as="geometry" />
        </mxCell>
        <mxCell id="iwt4n_2sWbRLV4kIYSHd-7" value="Reservasi" style="whiteSpace=wrap;html=1;align=center;" parent="1" vertex="1">
          <mxGeometry x="280" y="410" width="100" height="40" as="geometry" />
        </mxCell>
        <mxCell id="89x9Amh8rofe3yRWOV46-123" style="edgeStyle=orthogonalEdgeStyle;rounded=0;orthogonalLoop=1;jettySize=auto;html=1;exitX=0.5;exitY=0;exitDx=0;exitDy=0;entryX=0.5;entryY=1;entryDx=0;entryDy=0;shadow=0;sourcePerimeterSpacing=2;targetPerimeterSpacing=1;strokeColor=default;endArrow=none;endFill=0;" edge="1" parent="1" source="89x9Amh8rofe3yRWOV46-1" target="iwt4n_2sWbRLV4kIYSHd-4">
          <mxGeometry relative="1" as="geometry" />
        </mxCell>
        <mxCell id="89x9Amh8rofe3yRWOV46-1" value="Pesan" style="shape=rhombus;perimeter=rhombusPerimeter;whiteSpace=wrap;html=1;align=center;" vertex="1" parent="1">
          <mxGeometry x="80" y="110" width="120" height="60" as="geometry" />
        </mxCell>
        <mxCell id="89x9Amh8rofe3yRWOV46-17" style="edgeStyle=orthogonalEdgeStyle;rounded=0;orthogonalLoop=1;jettySize=auto;html=1;exitX=0;exitY=0.5;exitDx=0;exitDy=0;entryX=1;entryY=0.5;entryDx=0;entryDy=0;endArrow=none;endFill=0;" edge="1" parent="1" source="89x9Amh8rofe3yRWOV46-2" target="iwt4n_2sWbRLV4kIYSHd-7">
          <mxGeometry relative="1" as="geometry" />
        </mxCell>
        <mxCell id="89x9Amh8rofe3yRWOV46-2" value="Cari" style="shape=rhombus;perimeter=rhombusPerimeter;whiteSpace=wrap;html=1;align=center;" vertex="1" parent="1">
          <mxGeometry x="490" y="400" width="120" height="60" as="geometry" />
        </mxCell>
        <mxCell id="89x9Amh8rofe3yRWOV46-15" style="edgeStyle=orthogonalEdgeStyle;rounded=0;orthogonalLoop=1;jettySize=auto;html=1;exitX=0.5;exitY=1;exitDx=0;exitDy=0;entryX=0;entryY=0.5;entryDx=0;entryDy=0;endArrow=none;endFill=0;" edge="1" parent="1" source="89x9Amh8rofe3yRWOV46-3" target="iwt4n_2sWbRLV4kIYSHd-7">
          <mxGeometry relative="1" as="geometry" />
        </mxCell>
        <mxCell id="89x9Amh8rofe3yRWOV46-3" value="Cetak" style="shape=rhombus;perimeter=rhombusPerimeter;whiteSpace=wrap;html=1;align=center;" vertex="1" parent="1">
          <mxGeometry x="80" y="350" width="120" height="60" as="geometry" />
        </mxCell>
        <mxCell id="89x9Amh8rofe3yRWOV46-6" style="edgeStyle=orthogonalEdgeStyle;rounded=0;orthogonalLoop=1;jettySize=auto;html=1;exitX=0.5;exitY=1;exitDx=0;exitDy=0;endArrow=none;endFill=0;" edge="1" parent="1" source="89x9Amh8rofe3yRWOV46-4" target="iwt4n_2sWbRLV4kIYSHd-3">
          <mxGeometry relative="1" as="geometry" />
        </mxCell>
        <mxCell id="89x9Amh8rofe3yRWOV46-21" value="" style="edgeStyle=orthogonalEdgeStyle;rounded=0;orthogonalLoop=1;jettySize=auto;html=1;endArrow=none;endFill=0;" edge="1" parent="1" source="89x9Amh8rofe3yRWOV46-4" target="iwt4n_2sWbRLV4kIYSHd-5">
          <mxGeometry relative="1" as="geometry" />
        </mxCell>
        <mxCell id="89x9Amh8rofe3yRWOV46-4" value="Kelola" style="shape=rhombus;perimeter=rhombusPerimeter;whiteSpace=wrap;html=1;align=center;" vertex="1" parent="1">
          <mxGeometry x="610" y="180" width="120" height="60" as="geometry" />
        </mxCell>
        <mxCell id="89x9Amh8rofe3yRWOV46-12" style="edgeStyle=orthogonalEdgeStyle;rounded=0;orthogonalLoop=1;jettySize=auto;html=1;exitX=0.5;exitY=0;exitDx=0;exitDy=0;entryX=0.5;entryY=1;entryDx=0;entryDy=0;endArrow=none;endFill=0;" edge="1" parent="1" source="89x9Amh8rofe3yRWOV46-5" target="iwt4n_2sWbRLV4kIYSHd-6">
          <mxGeometry relative="1" as="geometry" />
        </mxCell>
        <mxCell id="89x9Amh8rofe3yRWOV46-13" style="edgeStyle=orthogonalEdgeStyle;rounded=0;orthogonalLoop=1;jettySize=auto;html=1;exitX=0.5;exitY=0;exitDx=0;exitDy=0;entryX=0.5;entryY=1;entryDx=0;entryDy=0;endArrow=none;endFill=0;" edge="1" parent="1" source="89x9Amh8rofe3yRWOV46-5" target="iwt4n_2sWbRLV4kIYSHd-5">
          <mxGeometry relative="1" as="geometry" />
        </mxCell>
        <mxCell id="89x9Amh8rofe3yRWOV46-5" value="Lihat" style="shape=rhombus;perimeter=rhombusPerimeter;whiteSpace=wrap;html=1;align=center;" vertex="1" parent="1">
          <mxGeometry x="310" y="160" width="120" height="60" as="geometry" />
        </mxCell>
        <mxCell id="89x9Amh8rofe3yRWOV46-22" value="name" style="ellipse;whiteSpace=wrap;html=1;align=center;" vertex="1" parent="1">
          <mxGeometry x="480" y="300" width="100" height="40" as="geometry" />
        </mxCell>
        <mxCell id="89x9Amh8rofe3yRWOV46-23" value="id_admin" style="ellipse;whiteSpace=wrap;html=1;align=center;fontStyle=4;" vertex="1" parent="1">
          <mxGeometry x="480" y="240" width="100" height="40" as="geometry" />
        </mxCell>
        <mxCell id="89x9Amh8rofe3yRWOV46-24" value="email" style="ellipse;whiteSpace=wrap;html=1;align=center;" vertex="1" parent="1">
          <mxGeometry x="870" y="220" width="100" height="40" as="geometry" />
        </mxCell>
        <mxCell id="89x9Amh8rofe3yRWOV46-25" value="password" style="ellipse;whiteSpace=wrap;html=1;align=center;" vertex="1" parent="1">
          <mxGeometry x="870" y="330" width="100" height="40" as="geometry" />
        </mxCell>
        <mxCell id="89x9Amh8rofe3yRWOV46-36" value="role" style="ellipse;whiteSpace=wrap;html=1;align=center;" vertex="1" parent="1">
          <mxGeometry x="980" y="275" width="100" height="40" as="geometry" />
        </mxCell>
        <mxCell id="89x9Amh8rofe3yRWOV46-38" value="id_resepsionis" style="ellipse;whiteSpace=wrap;html=1;align=center;fontStyle=4;" vertex="1" parent="1">
          <mxGeometry x="550" y="530" width="100" height="40" as="geometry" />
        </mxCell>
        <mxCell id="89x9Amh8rofe3yRWOV46-39" value="name" style="ellipse;whiteSpace=wrap;html=1;align=center;" vertex="1" parent="1">
          <mxGeometry x="700" y="540" width="100" height="40" as="geometry" />
        </mxCell>
        <mxCell id="89x9Amh8rofe3yRWOV46-40" value="password" style="ellipse;whiteSpace=wrap;html=1;align=center;" vertex="1" parent="1">
          <mxGeometry x="840" y="530" width="100" height="40" as="geometry" />
        </mxCell>
        <mxCell id="89x9Amh8rofe3yRWOV46-43" value="role" style="ellipse;whiteSpace=wrap;html=1;align=center;" vertex="1" parent="1">
          <mxGeometry x="920" y="460" width="100" height="40" as="geometry" />
        </mxCell>
        <mxCell id="89x9Amh8rofe3yRWOV46-45" value="email" style="ellipse;whiteSpace=wrap;html=1;align=center;" vertex="1" parent="1">
          <mxGeometry x="880" y="410" width="100" height="40" as="geometry" />
        </mxCell>
        <mxCell id="89x9Amh8rofe3yRWOV46-51" value="id_admin" style="ellipse;whiteSpace=wrap;html=1;align=center;fontStyle=4;" vertex="1" parent="1">
          <mxGeometry x="-80" y="170" width="100" height="40" as="geometry" />
        </mxCell>
        <mxCell id="89x9Amh8rofe3yRWOV46-52" value="name" style="ellipse;whiteSpace=wrap;html=1;align=center;" vertex="1" parent="1">
          <mxGeometry x="-130" y="230" width="100" height="40" as="geometry" />
        </mxCell>
        <mxCell id="89x9Amh8rofe3yRWOV46-54" value="password" style="ellipse;whiteSpace=wrap;html=1;align=center;" vertex="1" parent="1">
          <mxGeometry x="-150" y="280" width="100" height="40" as="geometry" />
        </mxCell>
        <mxCell id="89x9Amh8rofe3yRWOV46-55" value="role" style="ellipse;whiteSpace=wrap;html=1;align=center;" vertex="1" parent="1">
          <mxGeometry x="-140" y="340" width="100" height="40" as="geometry" />
        </mxCell>
        <mxCell id="89x9Amh8rofe3yRWOV46-57" value="email" style="ellipse;whiteSpace=wrap;html=1;align=center;" vertex="1" parent="1">
          <mxGeometry x="-100" y="410" width="100" height="40" as="geometry" />
        </mxCell>
        <mxCell id="89x9Amh8rofe3yRWOV46-63" value="id_reservasi" style="ellipse;whiteSpace=wrap;html=1;align=center;fontStyle=4;" vertex="1" parent="1">
          <mxGeometry x="70" y="490" width="100" height="40" as="geometry" />
        </mxCell>
        <mxCell id="89x9Amh8rofe3yRWOV46-64" value="tgl_checkin" style="ellipse;whiteSpace=wrap;html=1;align=center;" vertex="1" parent="1">
          <mxGeometry x="130" y="540" width="100" height="40" as="geometry" />
        </mxCell>
        <mxCell id="89x9Amh8rofe3yRWOV46-65" value="tgl_checkout" style="ellipse;whiteSpace=wrap;html=1;align=center;" vertex="1" parent="1">
          <mxGeometry x="400" y="470" width="100" height="40" as="geometry" />
        </mxCell>
        <mxCell id="89x9Amh8rofe3yRWOV46-66" value="jumlah_kamar" style="ellipse;whiteSpace=wrap;html=1;align=center;" vertex="1" parent="1">
          <mxGeometry x="425" y="360" width="100" height="40" as="geometry" />
        </mxCell>
        <mxCell id="89x9Amh8rofe3yRWOV46-67" value="nama_pemesan" style="ellipse;whiteSpace=wrap;html=1;align=center;" vertex="1" parent="1">
          <mxGeometry x="200" y="590" width="100" height="40" as="geometry" />
        </mxCell>
        <mxCell id="89x9Amh8rofe3yRWOV46-68" value="nama_tamu" style="ellipse;whiteSpace=wrap;html=1;align=center;" vertex="1" parent="1">
          <mxGeometry x="350" y="320" width="100" height="40" as="geometry" />
        </mxCell>
        <mxCell id="89x9Amh8rofe3yRWOV46-69" value="tipe_kamar" style="ellipse;whiteSpace=wrap;html=1;align=center;" vertex="1" parent="1">
          <mxGeometry x="300" y="550" width="100" height="40" as="geometry" />
        </mxCell>
        <mxCell id="89x9Amh8rofe3yRWOV46-70" value="notelp_tamu" style="ellipse;whiteSpace=wrap;html=1;align=center;" vertex="1" parent="1">
          <mxGeometry x="270" y="280" width="100" height="40" as="geometry" />
        </mxCell>
        <mxCell id="89x9Amh8rofe3yRWOV46-71" value="email" style="ellipse;whiteSpace=wrap;html=1;align=center;" vertex="1" parent="1">
          <mxGeometry x="180" y="320" width="100" height="40" as="geometry" />
        </mxCell>
        <mxCell id="89x9Amh8rofe3yRWOV46-87" value="id_kamar" style="ellipse;whiteSpace=wrap;html=1;align=center;fontStyle=4;" vertex="1" parent="1">
          <mxGeometry x="100" y="-70" width="100" height="40" as="geometry" />
        </mxCell>
        <mxCell id="89x9Amh8rofe3yRWOV46-88" value="tipe_kamar" style="ellipse;whiteSpace=wrap;html=1;align=center;" vertex="1" parent="1">
          <mxGeometry x="180" y="-110" width="100" height="40" as="geometry" />
        </mxCell>
        <mxCell id="89x9Amh8rofe3yRWOV46-89" value="jumlah_kamar" style="ellipse;whiteSpace=wrap;html=1;align=center;" vertex="1" parent="1">
          <mxGeometry x="290" y="-90" width="100" height="40" as="geometry" />
        </mxCell>
        <mxCell id="89x9Amh8rofe3yRWOV46-102" value="id_fasilitas" style="ellipse;whiteSpace=wrap;html=1;align=center;fontStyle=4;" vertex="1" parent="1">
          <mxGeometry x="390" y="-80" width="100" height="40" as="geometry" />
        </mxCell>
        <mxCell id="89x9Amh8rofe3yRWOV46-103" value="tipe_kamar" style="ellipse;whiteSpace=wrap;html=1;align=center;" vertex="1" parent="1">
          <mxGeometry x="470" y="-110" width="100" height="40" as="geometry" />
        </mxCell>
        <mxCell id="89x9Amh8rofe3yRWOV46-104" value="nama_fasilitas" style="ellipse;whiteSpace=wrap;html=1;align=center;" vertex="1" parent="1">
          <mxGeometry x="560" y="-150" width="100" height="40" as="geometry" />
        </mxCell>
        <mxCell id="89x9Amh8rofe3yRWOV46-108" style="edgeStyle=orthogonalEdgeStyle;rounded=0;orthogonalLoop=1;jettySize=auto;html=1;exitX=0.5;exitY=1;exitDx=0;exitDy=0;shadow=0;" edge="1" parent="1" source="89x9Amh8rofe3yRWOV46-102" target="89x9Amh8rofe3yRWOV46-102">
          <mxGeometry relative="1" as="geometry" />
        </mxCell>
        <mxCell id="89x9Amh8rofe3yRWOV46-109" value="gambar" style="ellipse;whiteSpace=wrap;html=1;align=center;" vertex="1" parent="1">
          <mxGeometry x="620" y="-90" width="100" height="40" as="geometry" />
        </mxCell>
        <mxCell id="89x9Amh8rofe3yRWOV46-111" value="id_fasilitas" style="ellipse;whiteSpace=wrap;html=1;align=center;fontStyle=4;" vertex="1" parent="1">
          <mxGeometry x="870" y="70" width="100" height="40" as="geometry" />
        </mxCell>
        <mxCell id="89x9Amh8rofe3yRWOV46-112" value="tipe_kamar" style="ellipse;whiteSpace=wrap;html=1;align=center;" vertex="1" parent="1">
          <mxGeometry x="740" y="-90" width="100" height="40" as="geometry" />
        </mxCell>
        <mxCell id="89x9Amh8rofe3yRWOV46-113" value="nama_fasilitas" style="ellipse;whiteSpace=wrap;html=1;align=center;" vertex="1" parent="1">
          <mxGeometry x="870" y="-80" width="100" height="40" as="geometry" />
        </mxCell>
        <mxCell id="89x9Amh8rofe3yRWOV46-114" value="gambar" style="ellipse;whiteSpace=wrap;html=1;align=center;" vertex="1" parent="1">
          <mxGeometry x="960" y="-40" width="100" height="40" as="geometry" />
        </mxCell>
        <mxCell id="89x9Amh8rofe3yRWOV46-130" value="1" style="text;html=1;align=center;verticalAlign=middle;resizable=0;points=[];autosize=1;strokeColor=none;fillColor=none;" vertex="1" parent="1">
          <mxGeometry x="110" y="240" width="20" height="20" as="geometry" />
        </mxCell>
        <mxCell id="89x9Amh8rofe3yRWOV46-131" value="M" style="text;html=1;align=center;verticalAlign=middle;resizable=0;points=[];autosize=1;strokeColor=none;fillColor=none;" vertex="1" parent="1">
          <mxGeometry x="260" y="60" width="30" height="20" as="geometry" />
        </mxCell>
        <mxCell id="89x9Amh8rofe3yRWOV46-132" value="M" style="text;html=1;align=center;verticalAlign=middle;resizable=0;points=[];autosize=1;strokeColor=none;fillColor=none;" vertex="1" parent="1">
          <mxGeometry x="490" y="50" width="30" height="20" as="geometry" />
        </mxCell>
        <mxCell id="89x9Amh8rofe3yRWOV46-133" value="1" style="text;html=1;align=center;verticalAlign=middle;resizable=0;points=[];autosize=1;strokeColor=none;fillColor=none;" vertex="1" parent="1">
          <mxGeometry x="710" y="250" width="20" height="20" as="geometry" />
        </mxCell>
        <mxCell id="89x9Amh8rofe3yRWOV46-134" value="M" style="text;html=1;align=center;verticalAlign=middle;resizable=0;points=[];autosize=1;strokeColor=none;fillColor=none;" vertex="1" parent="1">
          <mxGeometry x="780" y="50" width="30" height="20" as="geometry" />
        </mxCell>
        <mxCell id="89x9Amh8rofe3yRWOV46-135" value="1" style="text;html=1;align=center;verticalAlign=middle;resizable=0;points=[];autosize=1;strokeColor=none;fillColor=none;" vertex="1" parent="1">
          <mxGeometry x="120" y="300" width="20" height="20" as="geometry" />
        </mxCell>
        <mxCell id="89x9Amh8rofe3yRWOV46-136" value="1" style="text;html=1;align=center;verticalAlign=middle;resizable=0;points=[];autosize=1;strokeColor=none;fillColor=none;" vertex="1" parent="1">
          <mxGeometry x="260" y="410" width="20" height="20" as="geometry" />
        </mxCell>
        <mxCell id="89x9Amh8rofe3yRWOV46-137" value="M" style="text;html=1;align=center;verticalAlign=middle;resizable=0;points=[];autosize=1;strokeColor=none;fillColor=none;" vertex="1" parent="1">
          <mxGeometry x="375" y="430" width="30" height="20" as="geometry" />
        </mxCell>
        <mxCell id="89x9Amh8rofe3yRWOV46-138" value="1" style="text;html=1;align=center;verticalAlign=middle;resizable=0;points=[];autosize=1;strokeColor=none;fillColor=none;" vertex="1" parent="1">
          <mxGeometry x="685" y="430" width="20" height="20" as="geometry" />
        </mxCell>
      </root>
    </mxGraphModel>
  </diagram>
</mxfile>
